<svg width="180" height="214" xmlns="http://www.w3.org/2000/svg" xmlns:xlink="http://www.w3.org/1999/xlink" overflow="hidden"><defs><clipPath id="clip0"><rect x="-468" y="2181" width="180" height="214"/></clipPath></defs><g clip-path="url(#clip0)" transform="translate(468 -2181)"><path d="M-451.086 2190.03C-467.037 2199.52-470.17 2229.19-464.148 2253.37-459.458 2272.2-449.486 2297.46-432.672 2321.25-416.854 2343.63-394.786 2363.69-377.959 2375.3-356.351 2390.21-325.547 2399.68-309.596 2390.19-301.53 2385.39-289.547 2372.28-289 2369.92-289 2369.92-296.027 2359.98-297.569 2357.8L-321.134 2324.46C-322.885 2321.99-333.867 2324.25-339.445 2327.15-346.971 2331.06-353.901 2341.56-353.901 2341.56-359.061 2344.3-363.383 2341.57-372.413 2337.76-383.511 2333.07-395.989 2318.51-405.921 2305.33-414.991 2291.63-424.389 2275.24-424.525 2264.03-424.637 2254.91-425.586 2250.18-420.76 2246.98-420.76 2246.98-407.488 2245.45-400.525 2240.74-395.365 2237.25-388.633 2228.97-390.384 2226.5L-413.949 2193.16C-415.491 2190.98-422.518 2181.04-422.518 2181.04-425.083 2180.54-443.02 2185.23-451.086 2190.03Z" fill="#FFFFFF" fill-rule="evenodd"/></g></svg>