<svg width="196" height="196" xmlns="http://www.w3.org/2000/svg" xmlns:xlink="http://www.w3.org/1999/xlink" overflow="hidden"><g transform="translate(-1777 -2347)"><path d="M1972 2445.5C1972 2499.35 1928.35 2543 1874.5 2543 1820.65 2543 1777 2499.35 1777 2445.5 1777 2391.65 1820.65 2348 1874.5 2348 1928.35 2348 1972 2391.65 1972 2445.5" fill="#FFFFFF" fill-rule="evenodd"/><path d="M1939.99 2439.8C1939.99 2410.69 1910.83 2387 1875.01 2387 1839.18 2387 1810 2410.69 1810 2439.8 1810 2465.91 1833.12 2487.77 1864.36 2491.9 1866.48 2492.36 1869.37 2493.3 1870.08 2495.11 1870.59 2497.03 1870.67 2499.04 1870.3 2500.99 1870.3 2500.99 1869.54 2505.58 1869.37 2506.57 1869.09 2508.21 1868.06 2513 1875.01 2510.07 1893.84 2500.15 1911.05 2487.41 1926.07 2472.3L1926.07 2472.3C1934.76 2463.71 1939.76 2452.05 1940 2439.82" fill="#5073A6" fill-rule="evenodd"/><path d="M1917.77 2456C1918.45 2456 1919 2455.47 1919 2454.81L1919 2450.31C1919 2449.65 1918.45 2449.12 1917.77 2449.12L1905.17 2449.12 1905.17 2444.44 1917.77 2444.44C1918.45 2444.44 1919 2443.91 1919 2443.25L1919 2438.75C1919 2438.1 1918.45 2437.56 1917.77 2437.56L1905.17 2437.56 1905.17 2432.88 1917.77 2432.88C1918.45 2432.88 1919 2432.35 1919 2431.7L1919 2427.19C1919 2426.53 1918.45 2426 1917.77 2426L1899.24 2426C1898.55 2426 1898 2426.53 1898 2427.19L1898 2454.76 1898 2454.76 1898 2454.76C1898 2455.42 1898.55 2455.95 1899.24 2455.95L1917.77 2455.95Z" fill="#FFFFFF" fill-rule="evenodd"/><path d="M1850.77 2456C1851.45 2456 1852 2455.47 1852 2454.81L1852 2450.32C1852 2449.67 1851.45 2449.14 1850.77 2449.14L1838.18 2449.14 1838.18 2427.19C1838.18 2426.53 1837.62 2426 1836.94 2426L1832.23 2426C1831.55 2426 1831 2426.53 1831 2427.19L1831 2454.77 1831 2454.77 1831 2454.77C1831 2455.42 1831.55 2455.95 1832.23 2455.95L1850.76 2455.95Z" fill="#FFFFFF" fill-rule="evenodd"/><path d="M1861.79 2426 1857.21 2426C1856.54 2426 1856 2426.53 1856 2427.19L1856 2454.81C1856 2455.47 1856.54 2456 1857.21 2456L1861.79 2456C1862.46 2456 1863 2455.47 1863 2454.81L1863 2427.21C1863 2426.55 1862.46 2426.02 1861.79 2426.02" fill="#FFFFFF" fill-rule="evenodd"/><path d="M1892.83 2426 1888.19 2426C1887.52 2426 1886.97 2426.55 1886.97 2427.22L1886.97 2444.1 1873.92 2426.54 1873.81 2426.41 1873.81 2426.41 1873.74 2426.34 1873.74 2426.34 1873.67 2426.27 1873.63 2426.27 1873.57 2426.23 1873.53 2426.23 1873.46 2426.18 1873.43 2426.18 1873.35 2426.15 1873.31 2426.15 1873.24 2426.15 1873.19 2426.15 1873.06 2426.15 1873.02 2426.15 1872.95 2426.15 1872.88 2426.15 1868.22 2426.15C1867.55 2426.15 1867 2426.7 1867 2427.37L1867 2455.78C1867 2456.46 1867.55 2457 1868.22 2457L1872.86 2457C1873.54 2457 1874.09 2456.46 1874.09 2455.78L1874.09 2438.79 1887.15 2456.36C1887.24 2456.48 1887.35 2456.59 1887.48 2456.67L1887.48 2456.67 1887.56 2456.71 1887.59 2456.71 1887.65 2456.71 1887.72 2456.71 1887.75 2456.71 1887.84 2456.71 1887.84 2456.71C1887.95 2456.74 1888.06 2456.76 1888.17 2456.76L1892.78 2456.76C1893.45 2456.76 1894 2456.21 1894 2455.54L1894 2427.24C1894 2426.57 1893.45 2426.02 1892.78 2426.02" fill="#FFFFFF" fill-rule="evenodd"/></g></svg>