<svg width="196" height="196" xmlns="http://www.w3.org/2000/svg" xmlns:xlink="http://www.w3.org/1999/xlink" overflow="hidden"><g transform="translate(-1543 -2343)"><path d="M1738 2441.5C1738 2495.35 1694.35 2539 1640.5 2539 1586.65 2539 1543 2495.35 1543 2441.5 1543 2387.65 1586.65 2344 1640.5 2344 1694.35 2344 1738 2387.65 1738 2441.5Z" fill="#FFFFFF" fill-rule="evenodd"/><path d="M1640.53 2411.28C1624.25 2411.28 1611.06 2424.59 1611.06 2441.01 1611.06 2457.43 1624.25 2470.75 1640.53 2470.75 1656.8 2470.75 1670 2457.43 1670 2441.01 1670.02 2424.62 1656.86 2411.3 1640.61 2411.28 1640.58 2411.28 1640.55 2411.28 1640.53 2411.28ZM1640.53 2460.35C1629.94 2460.35 1621.37 2451.7 1621.37 2441.02 1621.37 2430.34 1629.94 2421.69 1640.53 2421.69 1651.11 2421.69 1659.69 2430.34 1659.69 2441.02 1659.66 2451.68 1651.09 2460.32 1640.53 2460.34ZM1678.05 2410.07C1678.05 2413.9 1674.97 2417 1671.17 2417 1667.37 2417 1664.3 2413.9 1664.3 2410.07 1664.3 2406.23 1667.37 2403.13 1671.17 2403.13 1671.18 2403.13 1671.18 2403.13 1671.18 2403.13 1674.97 2403.13 1678.04 2406.22 1678.05 2410.04 1678.05 2410.05 1678.05 2410.06 1678.05 2410.07ZM1697.57 2417.1C1697.76 2408.09 1694.42 2399.36 1688.29 2392.81 1681.78 2386.62 1673.14 2383.25 1664.21 2383.41 1654.72 2382.87 1626.27 2382.87 1616.78 2383.41 1607.85 2383.24 1599.22 2386.61 1592.72 2392.78 1586.58 2399.34 1583.24 2408.06 1583.41 2417.08 1582.87 2426.65 1582.87 2455.36 1583.41 2464.93 1583.22 2473.95 1586.57 2482.68 1592.72 2489.23 1599.23 2495.4 1607.87 2498.76 1616.8 2498.59 1626.29 2499.14 1654.74 2499.14 1664.23 2498.59 1673.17 2498.78 1681.82 2495.42 1688.32 2489.23 1694.43 2482.66 1697.76 2473.94 1697.6 2464.93 1698.14 2455.36 1698.14 2426.68 1697.6 2417.1ZM1685.31 2475.2C1683.34 2480.24 1679.4 2484.23 1674.41 2486.23 1666.85 2489.28 1648.89 2488.56 1640.53 2488.56 1632.16 2488.56 1614.18 2489.23 1606.64 2486.23 1601.64 2484.24 1597.68 2480.25 1595.71 2475.2 1592.68 2467.57 1593.4 2449.45 1593.4 2441.01 1593.4 2432.58 1592.74 2414.44 1595.71 2406.82 1597.68 2401.78 1601.64 2397.8 1606.64 2395.81 1614.2 2392.76 1632.16 2393.48 1640.53 2393.48 1648.89 2393.48 1666.87 2392.81 1674.41 2395.81 1679.4 2397.81 1683.34 2401.79 1685.31 2406.83 1688.33 2414.46 1687.61 2432.58 1687.61 2441.02 1687.61 2449.46 1688.33 2467.6 1685.31 2475.2Z" fill="#5073A6" fill-rule="evenodd"/></g></svg>